HIERARCHY
ROOT Hips
{
	OFFSET 0.000000 0.000000 0.000000
	CHANNELS 6 Xposition Yposition Zposition Zrotation Yrotation Xrotation 
	JOINT LHipJoint
	{
		OFFSET 0.000000 0.000000 0.000000
		CHANNELS 3 Zrotation Yrotation Xrotation
		JOINT LeftUpLeg
		{
			OFFSET 1.363060 -1.794630 0.839290
			CHANNELS 3 Zrotation Yrotation Xrotation
			JOINT LeftLeg
			{
				OFFSET 2.448110 -6.726130 0.000000
				CHANNELS 3 Zrotation Yrotation Xrotation
				JOINT LeftFoot
				{
					OFFSET 2.562200 -7.039590 0.000000
					CHANNELS 3 Zrotation Yrotation Xrotation
					JOINT LeftToeBase
					{
						OFFSET 0.157640 -0.433110 2.322550
						CHANNELS 3 Zrotation Yrotation Xrotation
						End Site
						{
							OFFSET 0.000000 0.000000 0.000000
						}
					}
				}
			}
		}
	}
	JOINT RHipJoint
	{
		OFFSET 0.000000 0.000000 0.000000
		CHANNELS 3 Zrotation Yrotation Xrotation
		JOINT RightUpLeg
		{
			OFFSET -1.305520 -1.794630 0.839290
			CHANNELS 3 Zrotation Yrotation Xrotation
			JOINT RightLeg
			{
				OFFSET -2.542530 -6.985550 0.000000
				CHANNELS 3 Zrotation Yrotation Xrotation
				JOINT RightFoot
				{
					OFFSET -2.568260 -7.056230 0.000000
					CHANNELS 3 Zrotation Yrotation Xrotation
					JOINT RightToeBase
					{
						OFFSET -0.164730 -0.452590 2.363150
						CHANNELS 3 Zrotation Yrotation Xrotation
						End Site
						{
							OFFSET 0.000000 0.000000 0.000000
						}
					}
				}
			}
		}
	}
	JOINT LowerBack
	{
		OFFSET 0.000000 0.000000 0.000000
		CHANNELS 3 Zrotation Yrotation Xrotation
		JOINT Spine
		{
			OFFSET 0.028270 2.035590 -0.193380
			CHANNELS 3 Zrotation Yrotation Xrotation
			JOINT Spine1
			{
				OFFSET 0.056720 2.048850 -0.042750
				CHANNELS 3 Zrotation Yrotation Xrotation
				JOINT Neck
				{
					OFFSET 0.000000 0.000000 0.000000
					CHANNELS 3 Zrotation Yrotation Xrotation
					JOINT Neck1
					{
						OFFSET -0.054170 1.746240 0.172020
						CHANNELS 3 Zrotation Yrotation Xrotation
						JOINT Head
						{
							OFFSET 0.104070 1.761360 -0.123970
							CHANNELS 3 Zrotation Yrotation Xrotation
							End Site
							{
								OFFSET 0.000000 0.000000 0.000000
							}
						}
					}
				}
				JOINT LeftShoulder
				{
					OFFSET 0.000000 0.000000 0.000000
					CHANNELS 3 Zrotation Yrotation Xrotation
					JOINT LeftArm
					{
						OFFSET 3.362410 1.200890 -0.311210
						CHANNELS 3 Zrotation Yrotation Xrotation
						JOINT LeftForeArm
						{
							OFFSET 4.983000 -0.000000 -0.000000
							CHANNELS 3 Zrotation Yrotation Xrotation
							JOINT LeftHand
							{
								OFFSET 3.483560 -0.000000 -0.000000
								CHANNELS 3 Zrotation Yrotation Xrotation
								JOINT LeftFingerBase
								{
									OFFSET 0.000000 0.000000 0.000000
									CHANNELS 3 Zrotation Yrotation Xrotation
									JOINT LeftHandIndex1
									{
										OFFSET 0.715260 -0.000000 -0.000000
										CHANNELS 3 Zrotation Yrotation Xrotation
										End Site
										{
											OFFSET 0.000000 0.000000 0.000000
										}
									}
								}
								JOINT LThumb
								{
									OFFSET 0.000000 0.000000 0.000000
									CHANNELS 3 Zrotation Yrotation Xrotation
									End Site
									{
										OFFSET 0.000000 0.000000 0.000000
									}
								}
							}
						}
					}
				}
				JOINT RightShoulder
				{
					OFFSET 0.000000 0.000000 0.000000
					CHANNELS 3 Zrotation Yrotation Xrotation
					JOINT RightArm
					{
						OFFSET -3.136600 1.374050 -0.404650
						CHANNELS 3 Zrotation Yrotation Xrotation
						JOINT RightForeArm
						{
							OFFSET -5.241900 -0.000000 -0.000000
							CHANNELS 3 Zrotation Yrotation Xrotation
							JOINT RightHand
							{
								OFFSET -3.444170 -0.000000 -0.000000
								CHANNELS 3 Zrotation Yrotation Xrotation
								JOINT RightFingerBase
								{
									OFFSET 0.000000 0.000000 0.000000
									CHANNELS 3 Zrotation Yrotation Xrotation
									JOINT RightHandIndex1
									{
										OFFSET -0.622530 -0.000000 -0.000000
										CHANNELS 3 Zrotation Yrotation Xrotation
										End Site
										{
											OFFSET 0.000000 0.000000 0.000000
										}
									}
								}
								JOINT RThumb
								{
									OFFSET 0.000000 0.000000 0.000000
									CHANNELS 3 Zrotation Yrotation Xrotation
									End Site
									{
										OFFSET 0.000000 0.000000 0.000000
									}
								}
							}
						}
					}
				}
			}
		}
	}
}
MOTION
Frames: 10
Frame Time: 0.008333
3.166724 16.501289 6.288107 7.112237 25.871554 1.862905 -11.207641 5.996770 0.369493 7.575034 16.431384 7.528343 0.264514 2.027688 32.480813 1.826800 2.512547 29.841766 0.498100 0.000000 -72.871100 9.059892 -0.777471 -2.264026 18.494569 -23.438995 -29.664170 2.181839 -1.512286 34.461021 -5.203764 -17.951949 -29.213343 -173.301100 -0.000000 -16.776600 0.605243 -5.994055 -2.090963 -0.222905 -6.192444 -2.215708 -5.617190 -6.157610 3.929702 9.816549 -20.047724 -11.066421 -2.592218 -0.153294 -0.861610 0.000000 0.000000 0.000000 1.061627 18.329097 1.959364 -22.954022 0.076154 -10.164903 -1.691341 -54.281761 0.010284 -2.106290 -0.938005 0.020663 -0.093699 0.185863 -0.000000 0.000000 0.000000 0.000000 0.000000 0.000000 0.000000 18.372070 -19.155219 -0.720046 72.178631 -21.676699 -31.162763 4.214576 7.730411 0.013359 -4.388172 5.875487 -0.235293 0.162227 -0.050681 0.000000 0.000000 0.000000 0.000000 0.000000 0.000000 0.000000 
3.188184 16.495236 6.444071 7.066946 25.326300 1.823126 -11.234222 5.927540 0.400111 7.471512 15.896449 6.661861 0.316969 2.087890 34.596644 1.902431 2.885407 30.115266 0.686201 0.000000 -68.225800 9.071846 -0.853398 -2.337457 18.472066 -23.553482 -29.082343 2.206726 -1.539073 34.710024 -5.082797 -17.425928 -29.266095 -173.428500 -0.000000 -16.165500 0.692743 -5.874101 -2.003089 -0.227756 -6.074766 -2.216423 -5.670016 -6.038488 3.879791 9.816736 -19.802202 -11.111509 -2.599915 -0.153267 -0.875050 0.000000 0.000000 0.000000 1.129372 18.298857 1.956688 -23.300542 0.420817 -10.080431 -1.658241 -55.232767 0.011580 -2.487448 -1.049654 0.026848 -0.088682 0.185807 -0.000000 0.000000 0.000000 0.000000 0.000000 0.000000 0.000000 18.281971 -18.787040 -0.634519 72.466896 -21.018977 -31.039031 4.177622 7.621235 0.013222 -4.602682 5.942568 -0.249192 0.161617 -0.051636 0.000000 0.000000 0.000000 0.000000 0.000000 0.000000 0.000000 
3.207483 16.486559 6.597091 7.040197 24.744242 1.800467 -11.251552 5.847952 0.406882 7.285232 15.413056 5.686098 0.365071 2.160963 36.803633 1.963735 3.507015 29.918548 1.010400 0.000000 -63.605300 9.091666 -0.922478 -2.402724 18.418953 -23.617623 -28.494427 2.231104 -1.564662 34.962636 -4.975570 -16.924730 -29.409076 -173.520300 0.000000 -15.559300 0.756134 -5.745065 -1.897774 -0.238970 -5.945865 -2.214255 -5.725562 -5.908018 3.827198 9.811835 -19.554092 -11.152030 -2.608891 -0.153409 -0.887545 0.000000 0.000000 0.000000 1.186126 18.256160 1.956124 -23.690770 0.813295 -9.929088 -1.634131 -56.052515 0.012438 -2.770099 -1.114541 0.031339 -0.085548 0.184215 -0.000000 0.000000 0.000000 0.000000 0.000000 0.000000 0.000000 18.187837 -18.409811 -0.549973 72.768885 -20.256104 -30.739053 4.140557 7.613706 0.013058 -4.759727 5.999300 -0.259888 0.160572 -0.052630 0.000000 0.000000 0.000000 0.000000 0.000000 0.000000 0.000000 
3.224880 16.475974 6.747433 7.030632 24.123527 1.796885 -11.260598 5.759725 0.394300 7.012574 14.974185 4.609899 0.412976 2.245661 39.054501 2.014002 4.370970 29.283867 1.455500 0.000000 -59.351100 9.118714 -0.984906 -2.456903 18.338158 -23.620795 -27.899925 2.253827 -1.588073 35.213166 -4.885353 -16.464231 -29.639520 -173.574500 0.000000 -14.991500 0.796927 -5.608125 -1.783653 -0.255747 -5.807185 -2.210674 -5.783303 -5.767721 3.772607 9.800565 -19.303103 -11.184462 -2.620160 -0.153876 -0.898121 0.000000 0.000000 0.000000 1.226884 18.208549 1.955730 -24.123591 1.254107 -9.706848 -1.617999 -56.745945 0.012825 -2.941964 -1.132667 0.033734 -0.084420 0.181086 -0.000000 0.000000 0.000000 0.000000 0.000000 0.000000 0.000000 18.093575 -18.023801 -0.469642 73.069033 -19.390357 -30.278177 4.104758 7.698111 0.012852 -4.846025 6.038167 -0.266083 0.159067 -0.053674 0.000000 0.000000 0.000000 0.000000 0.000000 0.000000 0.000000 
3.240709 16.464330 6.895349 7.034491 23.460926 1.813117 -11.262767 5.664014 0.367319 6.655149 14.571851 3.440941 0.463013 2.339569 41.307730 2.056399 5.450107 28.242636 1.988000 0.000000 -55.601800 9.151595 -1.041372 -2.497260 18.237142 -23.553542 -27.299906 2.273980 -1.608296 35.454045 -4.813657 -16.054459 -29.946566 -173.593201 0.000000 -14.491700 0.818465 -5.464452 -1.669415 -0.276932 -5.660300 -2.207281 -5.842762 -5.619233 3.716502 9.783042 -19.048182 -11.205678 -2.634794 -0.154824 -0.905880 0.000000 0.000000 0.000000 1.248833 18.162322 1.953508 -24.603698 1.745583 -9.414515 -1.609095 -57.321051 0.012747 -3.000335 -1.105117 0.033537 -0.085286 0.176435 -0.000000 0.000000 0.000000 0.000000 0.000000 0.000000 0.000000 18.004258 -17.628338 -0.396442 73.351719 -18.426927 -29.667323 4.071187 7.868458 0.012595 -4.855471 6.051679 -0.267177 0.157109 -0.054755 0.000000 0.000000 0.000000 0.000000 0.000000 0.000000 0.000000 
3.255192 16.452493 7.041138 7.045871 22.753858 1.849580 -11.259678 5.561450 0.331526 6.218286 14.195151 2.186483 0.515744 2.439347 43.524846 2.094228 6.705731 26.829258 2.564199 0.000000 -52.391900 9.188192 -1.093100 -2.521516 18.126782 -23.408857 -26.695923 2.291009 -1.624298 35.675558 -4.760326 -15.699417 -30.313027 -173.581200 -0.000000 -14.082100 0.825521 -5.314951 -1.563608 -0.301183 -5.506611 -2.205749 -5.903702 -5.464002 3.659195 9.761274 -18.788210 -11.213401 -2.653787 -0.156388 -0.910121 0.000000 0.000000 0.000000 1.250817 18.122522 1.947610 -25.139089 2.291737 -9.057826 -1.606884 -57.787189 0.012242 -2.949889 -1.034950 0.031046 -0.088027 0.170304 -0.000000 0.000000 0.000000 0.000000 0.000000 0.000000 0.000000 17.926256 -17.222323 -0.332717 73.601897 -17.372871 -28.907704 4.040279 8.124329 0.012283 -4.790817 6.032680 -0.262768 0.154745 -0.055831 -0.000000 0.000000 0.000000 0.000000 0.000000 0.000000 0.000000 
3.268646 16.441352 7.185021 7.056321 22.000589 1.905041 -11.253633 5.451973 0.294259 5.709542 13.824345 0.858510 0.570282 2.540258 45.660580 2.133187 8.102861 25.114278 3.144200 0.000000 -49.970900 9.225152 -1.141545 -2.528428 18.021167 -23.181634 -26.087740 2.304453 -1.634873 35.865232 -4.723955 -15.399026 -30.715710 -173.545700 -0.000000 -13.777701 0.826304 -5.160795 -1.474298 -0.326358 -5.348006 -2.207245 -5.965434 -5.303935 3.602851 9.735455 -18.511071 -11.205544 -2.677412 -0.158620 -0.910274 0.000000 0.000000 0.000000 1.231090 18.111692 1.936175 -25.740073 2.864548 -8.642142 -1.612149 -58.134079 0.011376 -2.799555 -0.930003 0.026762 -0.092473 0.162856 0.000000 0.000000 0.000000 0.000000 0.000000 0.000000 0.000000 17.858600 -16.795606 -0.281000 73.811641 -16.220325 -28.147756 4.013456 8.409009 0.012005 -4.626312 6.021032 -0.253458 0.151834 -0.057342 0.000000 0.000000 0.000000 0.000000 0.000000 0.000000 0.000000 
3.280939 16.431521 7.327323 7.066601 21.204769 1.981747 -11.242205 5.336201 0.259285 5.131593 13.446326 -0.536932 0.623921 2.639778 47.694048 2.173418 9.579814 23.102975 3.671000 0.000000 -47.907800 9.264367 -1.186615 -2.519319 17.920732 -22.884891 -25.485091 2.315299 -1.640902 36.023650 -4.698692 -15.134653 -31.131761 -173.499400 0.000000 -13.570300 0.813814 -5.003300 -1.404899 -0.353788 -5.185471 -2.213166 -6.027614 -5.140119 3.544558 9.715321 -18.243144 -11.182913 -2.705842 -0.161551 -0.906270 0.000000 0.000000 0.000000 1.197263 18.091264 1.918360 -26.415346 3.530382 -8.184395 -1.622328 -58.407009 0.010221 -2.568991 -0.789539 0.021283 -0.098184 0.154028 0.000000 0.000000 0.000000 0.000000 0.000000 0.000000 0.000000 17.817354 -16.372961 -0.239755 73.964299 -14.998466 -27.115113 3.987233 8.821909 0.011615 -4.443542 5.943015 -0.240447 0.148876 -0.058411 0.000000 0.000000 0.000000 0.000000 0.000000 0.000000 0.000000 
3.292429 16.423640 7.468065 7.061681 20.367884 2.075243 -11.229889 5.213409 0.233987 4.506725 13.038943 -1.989340 0.673775 2.733762 49.591054 2.219894 11.091228 20.876153 4.107200 -0.000000 -46.330100 9.299103 -1.230904 -2.493885 17.847882 -22.512898 -24.879716 2.323048 -1.640214 36.129626 -4.683505 -14.907965 -31.534457 -173.448800 0.000000 -13.457900 0.804721 -4.843585 -1.361133 -0.379595 -5.021373 -2.223922 -6.089253 -4.974890 3.488057 9.697614 -17.955182 -11.144031 -2.738735 -0.165146 -0.897826 0.000000 0.000000 0.000000 1.146729 18.105073 1.893243 -27.177019 4.217523 -7.690182 -1.640322 -58.567143 0.008890 -2.274471 -0.628708 0.015610 -0.104940 0.144166 -0.000000 0.000000 0.000000 0.000000 0.000000 0.000000 0.000000 17.791368 -15.928536 -0.211467 74.065496 -13.691222 -26.114190 3.964382 9.257818 0.011299 -4.186167 5.886895 -0.224733 0.145530 -0.059978 0.000000 0.000000 0.000000 0.000000 0.000000 0.000000 0.000000 
3.303072 16.417995 7.607376 7.039498 19.497899 2.184855 -11.215626 5.083714 0.222433 3.845648 12.583889 -3.490528 0.716417 2.820303 51.337500 2.272604 12.577797 18.464759 4.411600 -0.000000 -44.894500 9.329242 -1.274570 -2.455072 17.805315 -22.080628 -24.273516 2.328693 -1.633077 36.178747 -4.673299 -14.702846 -31.903170 -173.404400 -0.000000 -13.419801 0.797469 -4.683087 -1.343519 -0.403964 -4.857136 -2.239772 -6.149561 -4.809721 3.432731 9.687080 -17.652938 -11.089737 -2.775496 -0.169335 -0.885066 0.000000 0.000000 0.000000 1.085499 18.142310 1.860880 -28.031895 4.935293 -7.171760 -1.666001 -58.621842 0.007482 -1.937481 -0.454961 0.010441 -0.112329 0.133422 -0.000000 0.000000 0.000000 0.000000 0.000000 0.000000 0.000000 17.783991 -15.468813 -0.195063 74.115431 -12.313774 -25.089614 3.943345 9.744124 0.011043 -3.887886 5.843551 -0.207518 0.141994 -0.061864 0.000000 0.000000 0.000000 0.000000 0.000000 0.000000 0.000000 
